<?xml version="1.0"?>
<svg xmlns="http://www.w3.org/2000/svg" height="512px" viewBox="0 -74 462.034 462" width="512px" class=""><g><path d="m330.070312 171.332031c.011719-5.9375 2.382813-11.625 6.59375-15.808593 4.207032-4.1875 9.910157-6.527344 15.84375-6.507813h42.492188v-71.59375c-31-2.429687-52.804688-20.398437-56.734375-45.398437h-248.910156c-3.957031 24.992187-26.355469 42.984374-57.355469 45.402343v76.457031c16 1.199219 29.632812 6.058594 39.808594 14.484376 9.414062 7.714843 15.660156 18.625 17.542968 30.648437h241.257813c1.128906-4.351563 3.449219-8.300781 6.699219-11.40625-4.605469-4.15625-7.238282-10.070313-7.238282-16.277344zm-116.550781 20.183594c-41.894531 0-75.859375-33.964844-75.859375-75.859375 0-41.898438 33.964844-75.863281 75.863282-75.859375 41.894531 0 75.859374 33.960937 75.859374 75.859375-.046874 41.878906-33.984374 75.8125-75.863281 75.859375zm0 0" data-original="#000000" class="active-path" data-old_color="#000000" fill="#528AEA"/><path d="m331.238281 211.015625h-247.300781c-3.175781.066406-5.828125-2.40625-5.980469-5.578125-1.085937-23.785156-21.519531-39.332031-52.078125-39.824219-3.269531-.054687-5.890625-2.730469-5.875-6v-87.914062c-.015625-3.269531 2.605469-5.945313 5.875-6 15.667969-.25 28.867188-4.519531 38.234375-12.339844 8.367188-6.792969 13.40625-16.859375 13.832031-27.632813.152344-3.195312 2.789063-5.707031 5.988282-5.710937h259.753906c3.199219 0 5.832031 2.519531 5.96875 5.714844 1.117188 23.800781 21.3125 39.484375 51.488281 39.96875 3.269531.058593 5.878907 2.734375 5.855469 6v77.316406h20v-149h-427v231h330.988281c1.132813-3.972656 3.316407-7.566406 6.320313-10.398437-2.863282-2.585938-4.960938-5.90625-6.070313-9.601563zm0 0" data-original="#000000" class="active-path" data-old_color="#000000" fill="#528AEA"/><path d="m451.535156 161.015625h-99.027344c-5.796874 0-10.5 4.703125-10.5 10.5 0 5.800781 4.703126 10.5 10.5 10.5h99.027344c5.796875 0 10.5-4.699219 10.5-10.5 0-5.796875-4.703125-10.5-10.5-10.5zm0 0" data-original="#000000" class="active-path" data-old_color="#000000" fill="#528AEA"/><path d="m213.519531 51.796875c-35.269531 0-63.859375 28.589844-63.859375 63.859375s28.59375 63.863281 63.863282 63.863281c35.269531 0 63.859374-28.59375 63.859374-63.863281-.039062-35.253906-28.609374-63.820312-63.863281-63.859375zm14.257813 42.21875h7.898437c3.3125 0 6 2.6875 6 6 0 3.316406-2.6875 6-6 6h-7.894531c-2.582031 11.035156-12.082031 19.078125-23.390625 19.800781l22.214844 21c2.363281 2.285156 2.449219 6.046875.195312 8.4375-2.257812 2.394532-6.015625 2.527344-8.4375.300782l-33.117187-31.277344c-1.792969-1.667969-2.371094-4.269532-1.460938-6.546875.914063-2.273438 3.132813-3.75 5.582032-3.714844h13.25c5.394531.089844 10.3125-3.0625 12.484374-8h-25.734374c-3.3125 0-6-2.683594-6-6 0-3.3125 2.6875-6 6-6h25.734374c-2.175781-4.933594-7.09375-8.085937-12.484374-8h-13.25c-3.3125 0-6-2.683594-6-6 0-3.3125 2.6875-6 6-6h46.300781c3.3125 0 6 2.6875 6 6 0 3.316406-2.6875 6-6 6h-11.230469c1.523438 3 2.664062 5 3.339844 8zm0 0" data-original="#000000" class="active-path" data-old_color="#000000" fill="#528AEA"/><path d="m451.535156 227.015625h-99.027344c-5.796874 0-10.5 4.703125-10.5 10.5 0 5.800781 4.703126 10.5 10.5 10.5h99.027344c5.796875 0 10.5-4.699219 10.5-10.5 0-5.796875-4.703125-10.5-10.5-10.5zm0 0" data-original="#000000" class="active-path" data-old_color="#000000" fill="#528AEA"/><path d="m451.535156 194.015625h-99.027344c-5.796874 0-10.5 4.703125-10.5 10.5 0 5.800781 4.703126 10.5 10.5 10.5h99.027344c5.796875 0 10.5-4.699219 10.5-10.5 0-5.796875-4.703125-10.5-10.5-10.5zm0 0" data-original="#000000" class="active-path" data-old_color="#000000" fill="#528AEA"/><path d="m451.535156 293.015625h-99.027344c-5.796874 0-10.5 4.703125-10.5 10.5 0 5.800781 4.703126 10.5 10.5 10.5h99.027344c5.796875 0 10.5-4.699219 10.5-10.5 0-5.796875-4.703125-10.5-10.5-10.5zm0 0" data-original="#000000" class="active-path" data-old_color="#000000" fill="#528AEA"/><path d="m451.535156 260.015625h-99.027344c-5.796874 0-10.5 4.703125-10.5 10.5 0 5.800781 4.703126 10.5 10.5 10.5h99.027344c5.796875 0 10.5-4.699219 10.5-10.5 0-5.796875-4.703125-10.5-10.5-10.5zm0 0" data-original="#000000" class="active-path" data-old_color="#000000" fill="#528AEA"/></g> </svg>
