<svg xmlns="http://www.w3.org/2000/svg" width="17" height="18" viewBox="0 0 17 18">
    <path fill="#313D48" fill-rule="evenodd" d="M15.088 10.12c.033-.268.058-.534.058-.818 0-.283-.025-.55-.058-.816l1.758-1.375a.42.42 0 0 0 .1-.534L15.28 3.694c-.1-.183-.325-.25-.509-.183l-2.075.833a6.088 6.088 0 0 0-1.408-.817l-.317-2.208a.406.406 0 0 0-.408-.35H7.23a.406.406 0 0 0-.409.35l-.316 2.208a6.402 6.402 0 0 0-1.409.817l-2.075-.833a.406.406 0 0 0-.508.183L.846 6.577a.41.41 0 0 0 .1.534l1.759 1.375a6.61 6.61 0 0 0-.059.816c0 .275.025.55.059.817L.946 11.494a.42.42 0 0 0-.1.533l1.667 2.884c.1.183.325.25.508.183l2.075-.833c.434.333.9.608 1.409.816l.316 2.209c.025.2.2.35.409.35h3.333c.208 0 .383-.15.408-.35l.317-2.209a6.402 6.402 0 0 0 1.408-.816l2.075.833c.192.075.409 0 .509-.183l1.666-2.884a.42.42 0 0 0-.1-.533l-1.758-1.375zm-6.192 2.1A2.92 2.92 0 0 1 5.98 9.301a2.92 2.92 0 0 1 2.916-2.916 2.92 2.92 0 0 1 2.917 2.916 2.92 2.92 0 0 1-2.917 2.917z"/>
</svg>
