<svg xmlns="http://www.w3.org/2000/svg" width="14" height="14" viewBox="0 0 14 14">
    <g fill="#528AEA" fill-rule="evenodd">
        <path d="M5.25 0H.583A.583.583 0 0 0 0 .583V5.25c0 .323.261.583.583.583H5.25c.322 0 .583-.26.583-.583V.583A.583.583 0 0 0 5.25 0zM13.417 0H8.75a.583.583 0 0 0-.583.583V5.25c0 .323.261.583.583.583h4.667c.322 0 .583-.26.583-.583V.583A.583.583 0 0 0 13.417 0zM5.25 8.167H.583A.583.583 0 0 0 0 8.75v4.667c0 .322.261.583.583.583H5.25c.322 0 .583-.26.583-.583V8.75a.583.583 0 0 0-.583-.583zM13.417 8.167H8.75a.583.583 0 0 0-.583.583v4.667c0 .322.261.583.583.583h4.667c.322 0 .583-.26.583-.583V8.75a.583.583 0 0 0-.583-.583z"/>
    </g>
</svg>
