<svg xmlns="http://www.w3.org/2000/svg" width="50" height="30" viewBox="0 0 43 36">
    <g fill="#000" fill-rule="evenodd">
        <path d="M34.137 27.486a14.35 14.35 0 0 1-6.5-1.56l-1.654-.862c-4.982-2.585-5.74-2.965-13.351.31-3.172 1.362-5.878 1.578-8.059.647a6.49 6.49 0 0 1-3.404-3.37.431.431 0 0 1 .258-.552.422.422 0 0 1 .552.25 5.697 5.697 0 0 0 2.948 2.896c1.947.862 4.43.612 7.36-.646 7.982-3.448 9.033-2.896 14.092-.285l1.647.862c6.292 3.172 12.575.5 13.652-1.517a.431.431 0 0 1 .759.406c-.897 1.663-4.224 3.421-8.3 3.421zM33.714 35.485c-2.259 0-4.486-.535-6.498-1.56l-1.655-.862c-4.982-2.586-5.74-2.974-13.36.302-3.163 1.37-5.87 1.585-8.059.646A6.447 6.447 0 0 1 .72 30.64a.44.44 0 0 1 .259-.552.44.44 0 0 1 .552.259 5.697 5.697 0 0 0 2.939 2.896c1.956.862 4.43.612 7.37-.647 7.98-3.447 9.032-2.896 14.091-.284l1.647.862c6.291 3.163 12.566.5 13.652-1.517a.422.422 0 0 1 .578-.181.431.431 0 0 1 .18.586c-.879 1.664-4.205 3.422-8.274 3.422z"/>
        <path d="M36.602 27.236h-.104a.431.431 0 0 1-.319-.517l2.19-9.17-17.471.103a.44.44 0 0 1-.302-.13.405.405 0 0 1-.13-.301v-1a.862.862 0 0 0-.861-.862H4.056l4.12 10.653a.431.431 0 0 1-.241.552.422.422 0 0 1-.56-.241l-4.31-11.205a.44.44 0 0 1 .405-.586h16.212c.952 0 1.724.772 1.724 1.724v.551l17.583-.095c.134 0 .261.06.345.164a.44.44 0 0 1 .078.37l-2.388 9.663a.431.431 0 0 1-.422.327z"/>
        <path fill-rule="nonzero" d="M17.959 20.479H8.986a.44.44 0 0 1-.302-.13 10.688 10.688 0 0 1-1.068-2.033.44.44 0 0 1 0-.423.422.422 0 0 1 .37-.198h9.973c.238 0 .43.193.43.431v1.948a.44.44 0 0 1-.43.405zm-8.732-.862h8.318v-1.051h-8.87c.216.44.432.861.552 1.051z"/>
        <path d="M22.889 17.626a.431.431 0 0 1-.431-.43V8.756H6.082v6.206a.431.431 0 1 1-.862 0V8.326c0-.238.193-.43.43-.43H22.89c.238 0 .43.192.43.43v8.87a.431.431 0 0 1-.43.43z"/>
        <path d="M22.889 8.757a.44.44 0 0 1-.431-.43v-6.81H8.668v6.81a.44.44 0 0 1-.432.43.431.431 0 0 1-.43-.43v-7.24c0-.239.192-.432.43-.432H22.89c.238 0 .43.193.43.431v7.24a.431.431 0 0 1-.43.431z"/>
    </g>
</svg>
