<svg xmlns="http://www.w3.org/2000/svg" width="50" height="30" viewBox="0 0 27 39">
    <g fill="#000" fill-rule="nonzero">
        <path d="M13.198 38.805a12.948 12.948 0 0 1-12.053-8.252 13.991 13.991 0 0 1-.104-9.565A50.07 50.07 0 0 1 6.363 9.631 103.852 103.852 0 0 1 12.58.605L12.79.38l.122-.121a.409.409 0 0 1 .339-.14.443.443 0 0 1 .321.174l.766 1.026c.548.73 1.078 1.41 1.591 2.174a77.452 77.452 0 0 1 7.94 13.548 25.722 25.722 0 0 1 2.138 7.287 12.513 12.513 0 0 1-3.417 10.435 12.87 12.87 0 0 1-9.391 4.043zm0-37.565a97.643 97.643 0 0 0-6.087 8.844 49.104 49.104 0 0 0-5.218 11.208 13.183 13.183 0 0 0 .122 8.974 12.035 12.035 0 0 0 20 3.87 11.704 11.704 0 0 0 3.122-9.67 24.74 24.74 0 0 0-2.07-7.035 77.165 77.165 0 0 0-7.826-13.4 48.491 48.491 0 0 0-1.6-2.173l-.443-.618z"/>
        <path d="M15.832 36.214a2.4 2.4 0 1 1 0-4.8 2.4 2.4 0 0 1 0 4.8zm0-3.922a1.53 1.53 0 1 0 0 3.061 1.53 1.53 0 0 0 0-3.06zM19.406 29.684a2.391 2.391 0 0 1-1.53-4.244 2.409 2.409 0 0 1 3.374.33c.405.485.6 1.111.539 1.74a2.4 2.4 0 0 1-2.383 2.174zm0-3.913a1.53 1.53 0 1 0 0 0zM10.18 29.118h-.226a2.391 2.391 0 1 1 2.07-3.904 2.391 2.391 0 0 1-1.844 3.922v-.018zm0-3.921a1.522 1.522 0 1 0 .965 2.695 1.513 1.513 0 0 0 .21-2.139 1.53 1.53 0 0 0-1.175-.556zM16.65 16.475a2.391 2.391 0 0 1-1.522-4.244 2.348 2.348 0 0 1 1.74-.53 2.383 2.383 0 0 1 2.156 2.609 2.4 2.4 0 0 1-2.383 2.165h.009zm0-3.922a1.522 1.522 0 1 0-.011 3.044 1.522 1.522 0 0 0 .01-3.044zM14.528 23.075h-.235a2.252 2.252 0 1 1 .235 0zm0-3.922a1.53 1.53 0 0 0-.965.348 1.522 1.522 0 0 0-.244 2.148c.255.313.625.51 1.026.548a1.522 1.522 0 0 0 1.661-1.374 1.478 1.478 0 0 0-.339-1.113 1.513 1.513 0 0 0-1.035-.548l-.104-.009z"/>
    </g>
</svg>
