<svg xmlns="http://www.w3.org/2000/svg" width="50" height="30" viewBox="0 0 42 44">
    <g fill="#000" fill-rule="evenodd"  stroke-width=".5">
        <path d="M4.11 35.025a3 3 0 0 1-1.59-.5 3 3 0 0 1-1.41-2.53v-6.69a3 3 0 0 1 1.71-2.73l8.2-4a.5.5 0 1 1 .44.9l-8.21 4.05a2 2 0 0 0-1.14 1.78v6.69a2 2 0 0 0 2.9 1.83l33.89-16.2a2 2 0 0 0 0-3.68l-7.36-3.33a2 2 0 0 0-1.72 0l-5 2.4a.5.5 0 0 1-.44-.9l5-2.4a3 3 0 0 1 2.57 0l7.36 3.33a3 3 0 0 1 1.8 2.72 3 3 0 0 1-1.78 2.76l-33.89 16.2a3 3 0 0 1-1.33.3z"/>
        <path fill-rule="nonzero" d="M18.63 25.375a8.11 8.11 0 1 1-.02-16.22 8.11 8.11 0 0 1 .02 16.22zm0-15.21a7.11 7.11 0 1 0-.02 14.22 7.11 7.11 0 0 0 .02-14.22z"/>
        <path d="M6.34 11.835c-.276 0-.5-.134-.5-.3V6.298c0-.165.224-.3.5-.3s.5.135.5.3v5.237c0 .166-.224.3-.5.3zM15.02 7.39c-.276 0-.5-.134-.5-.3V1.151c0-.165.224-.3.5-.3s.5.135.5.3V7.09c0 .166-.224.3-.5.3zM24.28 9.25c-.276 0-.5-.135-.5-.3V2.843c0-.166.224-.3.5-.3s.5.134.5.3V8.92c.011.084-.036.167-.13.23a.697.697 0 0 1-.37.1zM15.02 42.895a.46.46 0 0 1-.23-.06.49.49 0 0 1-.25-.57l2.67-10-8.4.82a.51.51 0 0 1-.55-.45.5.5 0 0 1 .45-.54l9.12-.9a.52.52 0 0 1 .43.18.49.49 0 0 1 .1.45l-2.25 8.41 7.78-9.65a.49.49 0 0 1 .66-.1l7.15 4.69-4.35-8.36a.49.49 0 0 1 .29-.7l7.47-2.36-5.38-.71a.504.504 0 0 1 .13-1l7.6 1a.502.502 0 1 1 .09 1l-9 2.85 5 9.53a.5.5 0 0 1-.11.6.51.51 0 0 1-.61 0l-8.45-5.5-9 11.14a.51.51 0 0 1-.36.23z"/>
    </g>
</svg>
