<svg xmlns="http://www.w3.org/2000/svg" width="26" height="24" viewBox="0 0 26 24">
    <g fill="#FFF" fill-rule="evenodd">
        <path d="M24.43 6.713h-2.353v8.629c0 .867-.702 1.569-1.568 1.569H11.98l-3.586 3.137h7.157l5.286 3.776a.784.784 0 0 0 1.24-.638v-3.138h2.354a.785.785 0 0 0 .784-.784V7.497a.785.785 0 0 0-.784-.784z"/>
        <path d="M19.724.438H.898a.784.784 0 0 0-.785.784v13.335c0 .434.35.785.785.785h3.137v4.706a.785.785 0 1 0 1.3.59l6.055-5.296h8.334c.434 0 .785-.35.785-.785V1.222a.784.784 0 0 0-.785-.784z"/>
    </g>
</svg>
