<svg xmlns="http://www.w3.org/2000/svg" width="50" height="30" viewBox="0 0 37 37">
    <g fill="#000" fill-rule="evenodd" stroke-width=".5">
        <path fill-rule="nonzero" d="M22.131 36.549h-2.535a.32.32 0 0 1-.126 0H9.398c-1.048 0-1.299-.25-1.307-1.276V30.46v-13.5a1.377 1.377 0 0 1 .916-1.409 18 18 0 0 0 5.752-3.725 11.74 11.74 0 0 0 3.201-8.687A2.551 2.551 0 0 1 19.47.556a2.348 2.348 0 0 1 2.802.548c1.033.916 1.166 2.105 1.291 3.264v.11a15.065 15.065 0 0 1-1.565 8.46 2.99 2.99 0 0 0-.188.43.994.994 0 0 0 0 .782c.204.214.488.33.783.321.232.016.465.016.697 0h9.939a2.966 2.966 0 0 1 2.285.869c.44.67.564 1.5.336 2.27l-.422 2.246c-.822 4.413-1.667 8.913-2.841 13.265a28.53 28.53 0 0 1-.595 1.847 2.011 2.011 0 0 1-2.23 1.565l-7.63.016zm-2.41-.783h10.01c.907 0 1.189-.196 1.494-1.049.243-.688.43-1.26.58-1.8 1.189-4.32 2.042-8.796 2.856-13.132l.43-2.246a2.035 2.035 0 0 0-.156-1.643 2.183 2.183 0 0 0-1.698-.572h-9.94a6.26 6.26 0 0 1-.782 0 1.706 1.706 0 0 1-1.346-.673c-.255-.454-.284-1-.079-1.479a4.03 4.03 0 0 1 .227-.532 14.314 14.314 0 0 0 1.48-8.045v-.118c-.118-1.056-.227-2.05-1.034-2.77a1.643 1.643 0 0 0-1.964-.438 1.792 1.792 0 0 0-1.049 1.847 12.46 12.46 0 0 1-3.443 9.25 18.837 18.837 0 0 1-5.987 3.913.618.618 0 0 0-.462.697v18.29c-.004.16.01.32.04.477.161.008.323.008.485 0h10.174a.352.352 0 0 1 .164.023z"/>
        <path d="M8.46 36.063H2.197A1.737 1.737 0 0 1 .5 34.318V18.322a1.737 1.737 0 0 1 1.722-1.746h6.26a.391.391 0 1 1 0 .783h-6.26a.955.955 0 0 0-.94.963v15.996a.955.955 0 0 0 .94.963h6.26a.391.391 0 1 1-.023.782z"/>
    </g>
</svg>
