<svg xmlns="http://www.w3.org/2000/svg" width="50" height="30" viewBox="0 0 42 44">
    <g fill="#000" fill-rule="evenodd"  stroke-width=".5">
        <path d="M1.1 43.731a.41.41 0 0 1-.21 0 .49.49 0 0 1-.24-.66l9.26-19.54a.49.49 0 0 1 .66-.24.5.5 0 0 1 .24.67L1.6 43.491a.48.48 0 0 1-.5.24zM40.42 43.731a.48.48 0 0 1-.45-.28l-9.26-19.49a.5.5 0 0 1 .24-.67.49.49 0 0 1 .66.24l9.26 19.53a.49.49 0 0 1-.27.67.41.41 0 0 1-.18 0z"/>
        <path d="M32.68 27.441H8.84a.5.5 0 1 1 0-1h23.84a.5.5 0 1 1 0 1zM35.37 33.671H5.85a.51.51 0 0 1-.5-.5.5.5 0 0 1 .5-.5h29.52a.5.5 0 1 1 0 1zM38.6 39.891H2.94a.5.5 0 0 1-.5-.5.51.51 0 0 1 .5-.5H38.6a.5.5 0 1 1 0 1z"/>
        <path fill-rule="nonzero" d="M31.33 24.241H10.44a2.61 2.61 0 0 1-2.61-2.61V3.341a2.61 2.61 0 0 1 2.61-2.61h20.89a2.61 2.61 0 0 1 2.61 2.61v18.29a2.61 2.61 0 0 1-2.61 2.61zM10.44 1.731c-.89 0-1.61.721-1.61 1.61v18.29c0 .89.72 1.61 1.61 1.61h20.89a1.61 1.61 0 0 0 1.61-1.61V3.341a1.61 1.61 0 0 0-1.61-1.61H10.44z"/>
        <path d="M33.44 16.381H8.33a.5.5 0 1 1 0-1h25.11a.5.5 0 1 1 0 1z"/>
        <path d="M20.65 16.381a.5.5 0 0 1-.5-.5V1.231a.5.5 0 1 1 1 0v14.65a.51.51 0 0 1-.5.5z"/>
        <path fill-rule="nonzero" d="M29.66 21.341a2 2 0 1 1 0-4 2 2 0 0 1 0 4zm0-3.09a1.045 1.045 0 1 0 0 2.09 1.045 1.045 0 0 0 0-2.09zM11.73 21.341a2 2 0 1 1 0-4 2 2 0 0 1 0 4zm0-3.09a1 1 0 1 0 .002 2 1 1 0 0 0-.003-2z"/>
        <path d="M22.6 21.081h-3.66a.5.5 0 1 1 0-1h3.66a.5.5 0 1 1 0 1z"/>
    </g>
</svg>
