<svg xmlns="http://www.w3.org/2000/svg" width="16" height="16" viewBox="0 0 16 16">
    <path fill="#3F51B5" fill-rule="evenodd" d="M7.269 6.418v3.741H3.527V6.418H7.27zM11.494.135h1.87v1.248h.936c.415 0 .78.155 1.091.467.312.312.468.676.468 1.091v10.601c0 .416-.156.78-.468 1.091a1.496 1.496 0 0 1-1.091.468H2.452c-.416 0-.78-.156-1.091-.468a1.496 1.496 0 0 1-.468-1.09V2.94c0-.415.156-.779.468-1.09a1.496 1.496 0 0 1 1.09-.468h.936V.135h1.871v1.248h6.236V.135zM14.3 13.542V5.28H2.452v8.262H14.3z"/>
</svg>
