<svg xmlns="http://www.w3.org/2000/svg" width="50" height="30" viewBox="0 0 49 30">
    <g fill="#000" fill-rule="evenodd">
        <path fill-rule="nonzero" d="M47.997 22.523h-6.77a.5.5 0 0 1-.47-.31l-6.74-17.15a.49.49 0 0 1 .27-.64c.3-.13 7.43-3 13.78-2.09a.51.51 0 0 1 .43.5v19.19a.5.5 0 0 1-.5.5zm-6.42-1h5.92V3.273c-5.09-.57-10.74 1.3-12.37 1.9l6.45 16.35z"/>
        <path d="M23.897 29.723a2.2 2.2 0 0 1-1.05-.28c-3.1-1.81-10.78-6.61-15.13-12.33a.52.52 0 0 1-.09-.42l2.65-11.31a.49.49 0 0 1 .48-.39h9.82a.5.5 0 1 1 0 1h-9.42l-2.5 10.7c4.39 5.65 12.34 10.51 14.69 11.88.374.212.838.19 1.19-.06a1 1 0 0 0 .39-.67.9.9 0 0 0-.24-.71l-3.46-3.81a.5.5 0 0 1 .72-.69l4.89 4.75a1.55 1.55 0 0 0 2 .1 1.33 1.33 0 0 0 .51-.94 1.3 1.3 0 0 0-.33-1l-4.13-4.7a.5.5 0 0 1 .73-.68l5.21 5.34a1.58 1.58 0 0 0 2.11.11 1.39 1.39 0 0 0 .52-1 1.38 1.38 0 0 0-.39-1l-5-5.18a.5.5 0 0 1 .71-.7l5.45 5.26a1.76 1.76 0 0 0 2.27.12 1.56 1.56 0 0 0 .6-1.15 1.51 1.51 0 0 0-.51-1.17.5.5 0 0 1 0-.71.5.5 0 0 1 .71 0 2.49 2.49 0 0 1-.15 3.84 2.72 2.72 0 0 1-2.61.42v.37a2.39 2.39 0 0 1-.89 1.71 2.58 2.58 0 0 1-3.21 0c.005.07.005.14 0 .21a2.37 2.37 0 0 1-.89 1.63 2.53 2.53 0 0 1-3.32-.16l-.25-.24a.22.22 0 0 1 0 .08 1.89 1.89 0 0 1-.79 1.37 2.09 2.09 0 0 1-1.29.41z"/>
        <path fill-rule="nonzero" d="M37.367 21.353a.46.46 0 0 1-.33-.13l-10.16-9.3a4.59 4.59 0 0 0-3.24-.57 2.34 2.34 0 0 0-1.45 1 3.8 3.8 0 0 1-2.06 1.56c-1.9.59-3.25.53-4-.2s-.79-1.63-.42-3c.73-2.84 3.32-4.9 5.37-6.08a8 8 0 0 1 7.46-.35l7.44 3.46a.53.53 0 0 1 .26.27l4.36 11.07a.5.5 0 0 1-.21.61l-2.76 1.59a.48.48 0 0 1-.26.07zm-12.89-11.08a5 5 0 0 1 3.06.91l9.9 9.05 2.07-1.22-4.13-10.48-7.27-3.39a7.06 7.06 0 0 0-6.51.3c-1.89 1.13-4.28 3-4.94 5.51-.18.69-.3 1.61.15 2 .45.39 1.56.42 3 0a2.77 2.77 0 0 0 1.52-1.14 3.29 3.29 0 0 1 2.07-1.43 4.37 4.37 0 0 1 1.08-.11zM7.297 21.013H.727a.5.5 0 0 1-.5-.5v-19.2a.51.51 0 0 1 .42-.5 19.36 19.36 0 0 1 10.99 1.82c.198.11.3.338.25.56l-4.1 17.44a.49.49 0 0 1-.49.38zm-6.07-1h5.68l3.91-16.62a18.66 18.66 0 0 0-9.59-1.65v18.27z"/>
    </g>
</svg>
