<svg xmlns="http://www.w3.org/2000/svg" width="50" height="30" viewBox="0 0 48 27">
    <g fill="#000" fill-rule="evenodd">
        <path fill-rule="nonzero" d="M5.137 18.888a12.19 12.19 0 0 1-1.39-.07.51.51 0 0 1-.32-.17l-.64-.76a.51.51 0 0 1-.12-.38.5.5 0 0 1 .2-.34l1.89-1.41-4.7-6.74a.5.5 0 0 1-.09-.46.51.51 0 0 1 .33-.31l2.49-.71a.5.5 0 0 1 .34 0l8.6 3.94a3.91 3.91 0 0 0 2.27 0c1.38-.45 24-9.8 24.19-9.9.51-.17 4.67-1.56 6.67-.32.73 0 2.45.15 2.78 1.09.33.94-.62 1.55-.92 1.79-2.38 1.93-12.19 6.07-13.41 6.62l-6.17 7.18a.47.47 0 0 1-.31.16l-2.13.33a.5.5 0 0 1-.48-.2.51.51 0 0 1 0-.52l2.25-4.31a4.52 4.52 0 0 0-.81.3c-1.02.43-13.48 5.19-20.52 5.19zm-1.08-1c6.14.56 19.41-4.27 21.13-5.09 1.72-.82 2.31-.23 2.43 0 .08.15.08.33 0 .48l-2.1 4 1-.15 6.13-7.12a.5.5 0 0 1 .19-.13c.13-.12 10.88-4.59 13.29-6.51.58-.47.6-.69.6-.69a3.71 3.71 0 0 0-2-.41.53.53 0 0 1-.29-.1c-1.28-.92-4.67-.06-5.87.36-.9.37-22.81 9.45-24.23 9.91a4.78 4.78 0 0 1-3 0l-8.37-3.89-1.64.47 4.57 6.6a.49.49 0 0 1-.11.69l-1.89 1.35.16.23z"/>
        <path fill-rule="nonzero" d="M23.027 8.898a.46.46 0 0 1-.23-.06l-5.33-2.86a.5.5 0 0 1 .07-.92l2.23-.77a.43.43 0 0 1 .25 0l8.43 1.47a.502.502 0 1 1 .1 1l-5.33 2.1a.58.58 0 0 1-.19.04zm-4.06-3.27l4.12 2.21 3.48-1.44-6.6-1.13-1 .36z"/>
        <path d="M38.407 6.238a.51.51 0 0 1-.44-.31l-.52-1.26a.51.51 0 0 1 .27-.66.5.5 0 0 1 .65.27l.53 1.27a.51.51 0 0 1-.27.65.46.46 0 0 1-.22.04zM35.217 7.498a.48.48 0 0 1-.46-.31l-.53-1.26a.51.51 0 0 1 .27-.65.5.5 0 0 1 .66.27l.52 1.26a.5.5 0 0 1-.27.66.63.63 0 0 1-.19.03zM32.047 8.758a.51.51 0 0 1-.46-.31l-.52-1.26a.49.49 0 0 1 .27-.65.51.51 0 0 1 .65.27l.53 1.27a.51.51 0 0 1-.27.65.71.71 0 0 1-.2.03zM28.357 10.328a.51.51 0 0 1-.46-.31l-.52-1.26a.49.49 0 0 1 .27-.65.51.51 0 0 1 .65.27l.53 1.27a.51.51 0 0 1-.27.65.71.71 0 0 1-.2.03zM2.867 26.238a.51.51 0 0 1-.47-.31.51.51 0 0 1 .28-.65l18.67-7.35a.49.49 0 0 1 .65.28.5.5 0 0 1-.28.65l-18.67 7.35a.57.57 0 0 1-.18.03zM17.697 25.018a.48.48 0 0 1-.45-.29.49.49 0 0 1 .24-.66l5.33-2.46a.52.52 0 0 1 .67.25.5.5 0 0 1-.25.66l-5.33 2.46a.52.52 0 0 1-.21.04zM41.357 4.198a.48.48 0 0 1-.39-.25.49.49 0 0 1 .18-.68l3.34-1.94a.51.51 0 0 1 .68.19.5.5 0 0 1-.19.68l-3.37 1.94a.57.57 0 0 1-.25.06z"/>
    </g>
</svg>
