<svg xmlns="http://www.w3.org/2000/svg" width="50" height="30" viewBox="0 0 47 37">
    <g fill="#000" fill-rule="evenodd">
        <path fill-rule="nonzero" d="M44.685 36.611H3.875a.52.52 0 0 1-.46-.3l-2.54-5.58a.78.78 0 0 1 0-.21v-6.67a.5.5 0 0 1 .5-.5h5.8a.52.52 0 0 1 .36.14l2.06 2.07h36.54a.48.48 0 0 1 .41.22.47.47 0 0 1 0 .47l-2.67 6.72 1 .52a.51.51 0 0 1 .27.43l.07 2.17a.55.55 0 0 1-.14.37.51.51 0 0 1-.39.15zm-40.45-1h39.93v-1.37l-1.13-.59a.5.5 0 0 1-.22-.63l2.62-6.46h-36a.49.49 0 0 1-.36-.15l-2.1-2.06h-5.1v6.06l2.36 5.2z"/>
        <path d="M13.385 26.561a.5.5 0 0 1-.5-.5v-14.19h-9.01v4.08h1.27a.5.5 0 0 1 .5.5v7.4a.5.5 0 0 1-.5.5.51.51 0 0 1-.5-.5v-6.9h-1.24a.5.5 0 0 1-.5-.5v-5.08a.5.5 0 0 1 .5-.5h10a.5.5 0 0 1 .5.5v14.69a.5.5 0 0 1-.52.5z"/>
        <path d="M8.395 11.871a.43.43 0 0 1-.19 0 .49.49 0 0 1-.27-.65l1.47-3.6a.49.49 0 0 1 .47-.3h3a.5.5 0 0 1 .5.5v3.55a.5.5 0 1 1-1 0v-3h-2.18l-1.32 3.19a.5.5 0 0 1-.48.31zM21.805 26.561a.5.5 0 0 1-.5-.5v-12.55l-1.32-5.88h-2.43v18.43a.5.5 0 1 1-1 0V7.131a.5.5 0 0 1 .5-.5h3.33a.5.5 0 0 1 .49.39l1.42 6.33V26.061a.5.5 0 0 1-.49.5z"/>
        <path d="M21.805 13.961a.52.52 0 0 1-.35-.14.5.5 0 0 1 0-.71l10.22-10.77-11.08 5.24a.5.5 0 0 1-.42-.91l13.5-6.37a.5.5 0 0 1 .62.16.49.49 0 0 1-.05.63l-12.08 12.71a.48.48 0 0 1-.36.16z"/>
        <path d="M33.875 11.871a.5.5 0 0 1-.5-.5V.751a.5.5 0 1 1 1 0v10.62a.5.5 0 0 1-.5.5z"/>
        <path fill-rule="nonzero" d="M33.875 14.251a1.65 1.65 0 1 1 1.65-1.64 1.64 1.64 0 0 1-1.65 1.64zm0-2.29a.65.65 0 1 0 .65.65.65.65 0 0 0-.65-.69v.04z"/>
        <path fill-rule="nonzero" d="M32.215 18.591a.51.51 0 0 1-.36-.15l-3.21-3.39a.48.48 0 0 1-.13-.4.47.47 0 0 1 .21-.35l3.73-2.59a.53.53 0 0 1 .52 0 .51.51 0 0 1 .26.44v1a.49.49 0 0 1-.17.38 26.25 26.25 0 0 0-.35 4.57.51.51 0 0 1-.31.46.58.58 0 0 1-.19.03zm-2.44-3.8l2 2.08a14.32 14.32 0 0 1 .4-3.73l-2.4 1.65zM35.555 18.591a.57.57 0 0 1-.18 0 .51.51 0 0 1-.32-.46 22.36 22.36 0 0 0-.4-4.58.52.52 0 0 1-.2-.47l.12-1a.51.51 0 0 1 .79-.35l3.68 2.59a.5.5 0 0 1 .08.75l-3.25 3.37a.49.49 0 0 1-.32.15zm0-5.53a12.19 12.19 0 0 1 .48 3.81l2-2.09-2.48-1.72z"/>
        <path d="M38.765 26.331a.5.5 0 0 1-.5-.5v-5.39h-9.51v5.39a.5.5 0 1 1-1 0v-5.89a.5.5 0 0 1 .5-.5h10.51a.5.5 0 0 1 .5.5v5.89a.5.5 0 0 1-.5.5z"/>
    </g>
</svg>
