<svg xmlns="http://www.w3.org/2000/svg" width="17" height="18" viewBox="0 0 17 18">
    <path fill="#528AEA" fill-rule="evenodd" d="M16.442 13.718l-2.583-2.584c-.515-.512-1.367-.496-1.899.036l-1.301 1.301a38.067 38.067 0 0 1-.257-.143c-.822-.455-1.946-1.079-3.13-2.263C6.085 8.878 5.46 7.75 5.004 6.929l-.14-.25.873-.873.43-.43c.533-.533.547-1.385.034-1.899L3.618.894C3.105.38 2.253.396 1.72.929l-.728.733.02.02a4.21 4.21 0 0 0-.6 1.057c-.14.37-.227.721-.266 1.074-.342 2.827.95 5.411 4.457 8.918 4.847 4.846 8.753 4.48 8.922 4.462a4.364 4.364 0 0 0 1.076-.27c.384-.15.743-.354 1.054-.597l.016.014.737-.722c.533-.534.548-1.386.035-1.9z"/>
</svg>
