<svg xmlns="http://www.w3.org/2000/svg" width="50" height="30" viewBox="0 0 34 46">
    <g fill="#000" fill-rule="evenodd">
        <path fill-rule="nonzero" d="M15.72 23.607c-4.486 0-8.124-3.343-8.13-7.47V8.4c-.104-2.734 1.421-5.301 3.978-6.696a8.742 8.742 0 0 1 8.294 0c2.557 1.395 4.082 3.962 3.978 6.696v7.737c-.006 4.123-3.638 7.465-8.12 7.47zm0-21.767c-3.936.005-7.124 2.939-7.13 6.56v7.737c.144 3.525 3.291 6.314 7.125 6.314s6.981-2.79 7.125-6.314V8.4c0-3.62-3.186-6.555-7.12-6.56z"/>
        <path d="M23.18 11.859c-2.7 0-3.78-3.174-4.15-4.784-3.41 2.76-10.61 2.824-10.94 2.824a.513.513 0 0 1-.357-.132.433.433 0 0 1-.143-.328c0-.25.218-.455.49-.46.09 0 8.21-.092 10.88-3.165a.537.537 0 0 1 .53-.156c.19.055.33.205.36.386 0 .056.7 5.005 3.46 4.886.133-.01.265.03.365.112.1.081.16.197.165.32a.438.438 0 0 1-.125.334.518.518 0 0 1-.345.154l-.19.009zM32.65 45.2H.5c-.276 0-.5-.206-.5-.46v-13.8c-.002-2.937 1.588-5.68 4.24-7.314l5.43-3.35a.527.527 0 0 1 .69.13c.076.1.105.223.08.342a.45.45 0 0 1-.21.292L4.8 24.435c-2.379 1.46-3.805 3.92-3.8 6.55V44.28h31.15V31.068c.012-2.378-1.146-4.634-3.15-6.136l-6.9-5.088a.447.447 0 0 1-.22-.438.47.47 0 0 1 .327-.377.533.533 0 0 1 .513.098l6.86 5.087c2.262 1.666 3.576 4.189 3.57 6.854V44.74c0 .254-.224.46-.5.46z"/>
        <path d="M14.33 45.2c-.267.005-.49-.187-.5-.433l-1.32-22.08c-.014-.254.199-.47.475-.483.276-.013.511.183.525.437l1.32 22.08c.011.25-.198.464-.47.479h-.03z"/>
        <path d="M5.37 27.6a.513.513 0 0 1-.414-.205.429.429 0 0 1-.046-.43l2.23-4.95a.471.471 0 0 1 .268-.25.53.53 0 0 1 .382.002.483.483 0 0 1 .275.246.426.426 0 0 1 .005.352L6.15 26.57l7-.663a.521.521 0 0 1 .458.19c.105.134.124.31.05.46a.502.502 0 0 1-.408.27l-7.83.773h-.05z"/>
        <path d="M11.09 45.2a.496.496 0 0 1-.48-.332L6.21 30.36a.4.4 0 0 1 0-.285l1.41-3.395c.098-.235.38-.357.64-.276.257.094.389.357.3.598l-1.34 3.294 4.36 14.324c.07.244-.086.494-.35.561a.367.367 0 0 1-.14.019zM18.86 45.08c-.274-.02-.482-.235-.47-.488l1.37-22.834a.461.461 0 0 1 .276-.385.538.538 0 0 1 .5.028.45.45 0 0 1 .224.412l-1.4 22.825c-.01.247-.231.442-.5.442z"/>
        <path d="M27.82 27.434h-.05l-7.86-.754c-.276-.025-.478-.252-.45-.506.028-.254.274-.44.55-.414l7 .662-1.91-4.24a.426.426 0 0 1-.003-.356.482.482 0 0 1 .273-.252c.254-.09.54.02.65.248l2.23 4.96a.413.413 0 0 1-.06.45.52.52 0 0 1-.37.202z"/>
        <path d="M22.1 45.08H22a.486.486 0 0 1-.298-.215.419.419 0 0 1-.042-.346L26 30.167l-1.35-3.285c-.089-.24.043-.503.3-.598.26-.086.546.038.64.276L27 29.983a.4.4 0 0 1 0 .285L22.6 44.73a.485.485 0 0 1-.5.35z"/>
    </g>
</svg>
