<svg xmlns="http://www.w3.org/2000/svg" width="50" height="30" viewBox="0 0 36 44">
    <g fill="#000" fill-rule="evenodd">
        <path fill-rule="nonzero" d="M21.446 12.173h-6.38a.5.5 0 0 1-.49-.41L12.406.693a.5.5 0 0 1 .11-.42.49.49 0 0 1 .39-.18h10.28a.48.48 0 0 1 .38.18.48.48 0 0 1 .11.4l-1.77 11.07a.5.5 0 0 1-.46.43zm-6-1h5.54l1.61-10.08h-9.09l1.94 10.08z"/>
        <path d="M18.046 15.853a.5.5 0 0 1-.5-.5v-3.68a.5.5 0 1 1 1 0v3.68a.51.51 0 0 1-.5.5z"/>
        <path d="M18.156 22.163a3.67 3.67 0 0 1-3.38-2.23.52.52 0 0 1 .27-.66.51.51 0 0 1 .66.27 2.66 2.66 0 1 0 2.45-3.69.5.5 0 1 1 0-1 3.66 3.66 0 0 1 0 7.31z"/>
        <path fill-rule="nonzero" d="M34.716 43.243H1.406a.5.5 0 0 1-.5-.5v-17a.5.5 0 0 1 .5-.5h33.31a.5.5 0 0 1 .5.5v17a.5.5 0 0 1-.5.5zm-32.81-1h32.31v-16H1.906v16z"/>
        <path d="M33.816 26.223a.41.41 0 0 1-.16 0l-15.38-5.23-16.19 5.2a.49.49 0 0 1-.62-.32.5.5 0 0 1 .32-.63l16.34-5.26a.47.47 0 0 1 .31 0l15.54 5.25a.51.51 0 0 1 .31.64.49.49 0 0 1-.47.35zM5.846 39.643a.51.51 0 0 1-.5-.5v-9.82a.5.5 0 1 1 1 0v9.82a.5.5 0 0 1-.5.5zM11.766 39.643a.5.5 0 0 1-.5-.5v-9.82a.5.5 0 1 1 1 0v9.82a.5.5 0 0 1-.5.5zM17.706 39.643a.51.51 0 0 1-.5-.5v-9.82a.5.5 0 1 1 1 0v9.82a.5.5 0 0 1-.5.5zM23.906 39.643a.5.5 0 0 1-.5-.5v-9.82a.5.5 0 1 1 1 0v9.82a.51.51 0 0 1-.5.5zM30.276 39.643a.5.5 0 0 1-.5-.5v-9.82a.5.5 0 1 1 1 0v9.82a.51.51 0 0 1-.5.5z"/>
    </g>
</svg>
