<svg xmlns="http://www.w3.org/2000/svg" width="50" height="30" viewBox="0 0 50 35">
    <g fill="#000" fill-rule="evenodd">
        <path d="M19.644 27.944h-8.93a.5.5 0 0 1-.5-.5.51.51 0 0 1 .5-.5h8.93a.5.5 0 1 1 0 1z"/>
        <path d="M28.984 27.944h-1.61a.5.5 0 1 1 0-1h1.06v-6.65l-6-15.1h-1.15a.5.5 0 0 1-.5-.5v-1.87a1.035 1.035 0 0 0-2.07 0v2a.5.5 0 0 1-.5.5h-12v11a.5.5 0 0 1-.5.5h-3.73v10.12h1a.5.5 0 1 1 0 1h-1.5a.5.5 0 0 1-.5-.5v-11.12a.5.5 0 0 1 .5-.5h3.68v-11a.5.5 0 0 1 .5-.5h12.05v-1.5a2.035 2.035 0 1 1 4.07 0v1.37h1a.49.49 0 0 1 .46.31l6.12 15.51a.43.43 0 0 1 0 .19v7.24a.5.5 0 0 1-.38.5z"/>
        <path fill-rule="nonzero" d="M44.744 27.944h-15.76a.5.5 0 0 1-.5-.5V6.054a.5.5 0 0 1 .5-.5h2.54a.5.5 0 0 1 .5.5v17.16h12.72a.5.5 0 0 1 .5.5v3.73a.5.5 0 0 1-.5.5zm-15.31-1h14.81v-2.73h-12.77a.5.5 0 0 1-.5-.5V6.554h-1.54v20.39zM11.824 17.254h-2.95a.5.5 0 0 1-.5-.5v-8a.5.5 0 0 1 .5-.5h3a.5.5 0 0 1 .5.5v8a.5.5 0 0 1-.55.5zm-2.45-1h1.95v-7h-1.95v7zM24.394 21.474h-8.41a.5.5 0 0 1-.5-.5V8.744a.5.5 0 0 1 .5-.5h4.13a.51.51 0 0 1 .46.3l4.33 10.45a.65.65 0 0 1 0 .19v1.79a.5.5 0 0 1-.51.5zm-8-1h7.46v-1.19l-4.17-10h-3.25l-.04 11.19zM6.854 34.544a4.93 4.93 0 1 1 0-9.86 4.93 4.93 0 0 1 0 9.86zm0-8.86a3.93 3.93 0 1 0 0 7.86 3.93 3.93 0 0 0 0-7.86z"/>
        <path fill-rule="nonzero" d="M6.854 31.134a1.52 1.52 0 1 1 0-3.04 1.52 1.52 0 0 1 0 3.04zm0-2a.52.52 0 1 0 0 1 .52.52 0 1 0 0-1zM23.504 34.544a4.93 4.93 0 1 1 .02-9.86 4.93 4.93 0 0 1-.02 9.86zm0-8.86a3.93 3.93 0 1 0 3.94 3.93 3.94 3.94 0 0 0-3.94-3.93z"/>
        <path fill-rule="nonzero" d="M23.504 31.134a1.52 1.52 0 1 1 1.48-1.52 1.53 1.53 0 0 1-1.48 1.52zm0-2a.52.52 0 1 0 0 1 .52.52 0 1 0 0-1zM49.354 24.214h-17.88a.5.5 0 0 1-.5-.5v-12a.5.5 0 0 1 .5-.5h17.88a.5.5 0 0 1 .5.5v12a.5.5 0 0 1-.5.5zm-17.37-1h16.87v-11h-16.87v11z"/>
        <path d="M40.414 23.674a.5.5 0 0 1-.5-.5v-11.41a.5.5 0 1 1 1 0v11.41a.5.5 0 0 1-.5.5z"/>
    </g>
</svg>
