<svg xmlns="http://www.w3.org/2000/svg" width="50" height="30" viewBox="0 0 50 30">
    <g fill="#000" fill-rule="evenodd">
        <path fill-rule="nonzero" d="M13.4 20.08a.48.48 0 0 1-.37-.17l-7.45-8.38a.48.48 0 0 1-.11-.47.49.49 0 0 1 .33-.34l21.88-7V2.35a.51.51 0 0 1 .38-.49l4.31-1a.51.51 0 0 1 .62.49V2.7a.47.47 0 0 1-.15.35l-1.49 1.49-.44 10.87a.5.5 0 0 1-.38.46l-17 4.19-.13.02zm-6.57-8.64l6.74 7.58 16.34-4 .45-10.68a.53.53 0 0 1 .15-.34l1.48-1.48v-.58l-3.31.8v1.35a.51.51 0 0 1-.34.48L6.83 11.44z"/>
        <path fill-rule="nonzero" d="M6.47 11.69a.5.5 0 0 1-.44-.74l2.8-4.89a.48.48 0 0 1 .55-.26l1.94.49 2.38-4.64a.52.52 0 0 1 .65-.23l8.73 3.75a.5.5 0 0 1 0 .93L6.63 11.67a.47.47 0 0 1-.16.02zm3-4.81L7.56 10.3l13.92-4.73-7.1-3-2.35 4.55a.49.49 0 0 1-.56.25l-2-.49z"/>
        <path d="M17.01 24.5h-3.26a.5.5 0 0 1-.5-.5v-2.91a.5.5 0 0 1 .5-.5h22a.5.5 0 1 1 0 1h-21.5v1.91h2.76a.5.5 0 1 1 0 1z"/>
        <path d="M38.68 24.5H23.49a.5.5 0 1 1 0-1h15.19a.5.5 0 1 1 0 1zM48.67 24.5h-3.36a.5.5 0 1 1 0-1h2.86v-.86H45.3a.5.5 0 0 1-.5-.5v-2.1a.5.5 0 0 1 .5-.5h2.87v-2.2l-3.55-1.62a.49.49 0 0 1-.27-.31l-2.44-8.37h-5.66v14.05a.5.5 0 1 1-1 0V6.54a.5.5 0 0 1 .5-.5h6.52a.49.49 0 0 1 .48.36l2.49 8.51 3.67 1.65a.49.49 0 0 1 .29.45v3a.5.5 0 0 1-.5.5h-2.9v1.1h2.87a.5.5 0 0 1 .5.5V24a.5.5 0 0 1-.5.5zM30.51 21.59a.49.49 0 0 1-.46-.32l-2.09-5.21a.5.5 0 1 1 .93-.37l2.09 5.21a.51.51 0 0 1-.47.69z"/>
        <path d="M44.83 15.8h-6.05a.5.5 0 0 1-.5-.5V9.8a.5.5 0 0 1 .5-.5h4.45a.5.5 0 1 1 0 1h-4v4.5h5.55a.5.5 0 1 1 0 1h.05z"/>
        <path fill-rule="nonzero" d="M9.67 29.04H1.41a.52.52 0 0 1-.37-.16.51.51 0 0 1-.13-.37c.27-3.89 1.57-6.77 3.85-8.57a10.67 10.67 0 0 1 7.75-1.95.5.5 0 0 1 .29.16l1 1.09a.5.5 0 0 1 0 .68c-5.58 5.8-3.73 8.27-3.71 8.29a.5.5 0 0 1-.42.83zm-7.76-1h7c-.38-1.27-.34-4 3.83-8.48l-.54-.61a9.74 9.74 0 0 0-6.81 1.78c-1.96 1.54-3.11 4-3.48 7.31zM20.25 29.5a4.05 4.05 0 1 1 0-8.1 4.05 4.05 0 0 1 0 8.1zm0-7.1a3 3 0 1 0 .1 6 3 3 0 0 0-.1-6z"/>
        <path fill-rule="nonzero" d="M20.25 26.8a1.32 1.32 0 1 1 0-2.64 1.32 1.32 0 0 1 0 2.64zm0-1.63a.32.32 0 1 0 0 .63.32.32 0 1 0 0-.63zM41.8 29.74a4.05 4.05 0 1 1 4-4.05 4.06 4.06 0 0 1-4 4.05zm0-7.1a3.05 3.05 0 1 0 3 3.05 3.06 3.06 0 0 0-3-3.05z"/>
        <path fill-rule="nonzero" d="M41.8 27.01a1.32 1.32 0 1 1 1.32-1.32 1.33 1.33 0 0 1-1.32 1.32zm0-1.64a.32.32 0 0 0-.32.32.33.33 0 0 0 .32.32.32.32 0 0 0 0-.64z"/>
        <path d="M48.67 22.64a.5.5 0 0 1-.5-.5v-2.1a.5.5 0 1 1 1 0v2.1a.5.5 0 0 1-.5.5z"/>
    </g>
</svg>
