<svg xmlns="http://www.w3.org/2000/svg" width="50" height="30" viewBox="0 0 42 41">
    <g fill="#000" fill-rule="nonzero">
        <path d="M7.287 14.206a5.187 5.187 0 1 1 0-10.373 5.187 5.187 0 0 1 0 10.373zm0-9.52a4.342 4.342 0 1 0 0 8.684 4.342 4.342 0 0 0 0-8.684zM23.455 10.456a5.187 5.187 0 1 1 0-10.374 5.187 5.187 0 0 1 0 10.374zm0-9.52a4.342 4.342 0 1 0 0 8.683 4.342 4.342 0 0 0 0-8.683zM18.7 25.222a5.187 5.187 0 1 1 5.178-5.187 5.195 5.195 0 0 1-5.178 5.187zm0-9.52a4.342 4.342 0 1 0-.017 8.684 4.342 4.342 0 0 0 .017-8.684zM35.94 21.91a5.187 5.187 0 1 1 5.179-5.186 5.195 5.195 0 0 1-5.178 5.187zm0-9.528a4.342 4.342 0 1 0-.016 8.684 4.342 4.342 0 0 0 .017-8.684zM6.054 35.638a5.187 5.187 0 1 1 1.368-10.205 5.195 5.195 0 0 1 3.616 6.378 5.128 5.128 0 0 1-2.442 3.125 5.144 5.144 0 0 1-2.542.702zm0-9.53a4.342 4.342 0 1 0 2.137 8.11 4.266 4.266 0 0 0 2.036-2.61 4.325 4.325 0 0 0-.414-3.294 4.224 4.224 0 0 0-2.619-2.036 4.148 4.148 0 0 0-1.149-.17h.009zM20.676 40.909a5.187 5.187 0 1 1 0-10.374 5.187 5.187 0 0 1 0 10.374zm0-9.52a4.342 4.342 0 1 0 0 8.684 4.342 4.342 0 0 0 0-8.684zM35.316 38.755h-.195a5.28 5.28 0 1 1 .195 0zm0-9.52a4.342 4.342 0 0 0-.152 8.675 4.342 4.342 0 0 0 4.494-4.173 4.334 4.334 0 0 0-4.165-4.494l-.177-.009z"/>
    </g>
</svg>
