<svg xmlns="http://www.w3.org/2000/svg" width="26" height="28" viewBox="0 0 26 28">
    <g fill="#6396ED" fill-rule="evenodd">
        <path d="M23.934 5.089h-7.05v1.804h7.05V25.83h-7.05v1.804h8.812V6.893c0-.997-.789-1.804-1.762-1.804z"/>
        <path fill-rule="nonzero" d="M14.134.58H2.008C.976.58.139 1.436.139 2.492v25.142h15.863V2.492c0-1.056-.836-1.912-1.868-1.912zm.106 25.25h-2.644v-2.705h-7.05v2.705H1.902V2.492a.11.11 0 0 1 .03-.077.105.105 0 0 1 .076-.031h12.126c.058 0 .106.048.106.108V25.83z"/>
        <path d="M3.664 5.089h1.763v1.804H3.664zM7.19 5.089h1.762v1.804H7.19zM10.715 5.089h1.762v1.804h-1.762zM3.664 9.598h1.763v1.804H3.664zM7.19 9.598h1.762v1.804H7.19zM10.715 9.598h1.762v1.804h-1.762zM3.664 14.107h1.763v1.803H3.664zM7.19 14.107h1.762v1.803H7.19zM10.715 14.107h1.762v1.803h-1.762zM3.664 18.616h1.763v1.803H3.664zM7.19 18.616h1.762v1.803H7.19zM10.715 18.616h1.762v1.803h-1.762zM16.884 9.598h1.762v1.804h-1.762zM20.409 9.598h1.762v1.804H20.41zM16.884 14.107h1.762v1.803h-1.762zM20.409 14.107h1.762v1.803H20.41zM16.884 18.616h1.762v1.803h-1.762zM20.409 18.616h1.762v1.803H20.41z"/>
    </g>
</svg>
