<svg xmlns="http://www.w3.org/2000/svg" width="50" height="30" viewBox="0 0 34 43">
    <g fill="#000" fill-rule="evenodd" stroke-width=".5">
        <path fill-rule="nonzero" d="M22.951 25.823H11.903a.438.438 0 0 1-.438-.438v-3.917a11.197 11.197 0 1 1 11.933-.57v4.487a.438.438 0 0 1-.447.438zm-10.61-.876h10.181V20.68a.43.43 0 0 1 .193-.36 10.321 10.321 0 1 0-10.593.517c.14.079.227.226.228.386l-.009 3.724z"/>
        <path d="M14.313 25.823a.438.438 0 0 1-.438-.438v-8.49a.438.438 0 0 1 .876 0v8.49a.438.438 0 0 1-.438.438zM17.484 25.823a.438.438 0 0 1-.438-.438v-8.49a.447.447 0 0 1 .438-.438c.242 0 .438.196.438.438v8.49a.438.438 0 0 1-.438.438zM20.586 25.823a.438.438 0 0 1-.438-.438v-8.49a.447.447 0 0 1 .438-.438c.242 0 .438.196.438.438v8.49a.438.438 0 0 1-.438.438z"/>
        <path fill-rule="nonzero" d="M12.184 14.547a3.592 3.592 0 1 1 3.583-3.592 3.6 3.6 0 0 1-3.583 3.592zm0-6.3a2.716 2.716 0 1 0 2.707 2.708 2.716 2.716 0 0 0-2.707-2.752v.044zM21.585 14.547a3.592 3.592 0 1 1 3.566-3.636 3.6 3.6 0 0 1-3.566 3.636zm0-6.3a2.716 2.716 0 1 0 2.69 2.664 2.716 2.716 0 0 0-2.69-2.708v.044z"/>
        <path d="M30.18 37.922a.438.438 0 0 1-.43-.333.438.438 0 0 1 .324-.525l2.778-.614a.43.43 0 0 1 .526.325.438.438 0 0 1-.325.525l-2.777.657-.096-.035z"/>
        <path d="M30.828 41.19a.447.447 0 0 1-.42-.359l-.605-3.04L4.596 26.68c-1.235.263-3.066.657-3.39.771a.438.438 0 1 1-.325-.814c.5-.193 3.33-.771 3.654-.877a.394.394 0 0 1 .263 0l25.557 11.32a.438.438 0 0 1 .254.316l.675 3.268a.438.438 0 0 1-.342.517l-.114.008z"/>
        <path d="M4.649 26.664a.43.43 0 0 1-.43-.35l-.657-3.347a.446.446 0 0 1 .877-.167l.657 3.347a.438.438 0 0 1-.35.508l-.097.009zM3.834 38.807h-.105L.96 38.141a.438.438 0 0 1-.333-.525.43.43 0 0 1 .526-.29l2.777.658a.44.44 0 0 1-.096.876v-.053z"/>
        <path d="M3.177 42.075h-.088a.447.447 0 0 1-.341-.517l.657-3.268a.447.447 0 0 1 .245-.315l25.54-11.259a.386.386 0 0 1 .262 0c.316.07 3.146.649 3.654.877a.438.438 0 0 1-.307.814c-.324-.114-2.155-.508-3.39-.77L4.219 38.675l-.613 3.031a.438.438 0 0 1-.43.368z"/>
        <path d="M29.365 27.549h-.088a.42.42 0 0 1-.341-.508l.648-3.347a.447.447 0 0 1 .517-.35.438.438 0 0 1 .341.516l-.648 3.347a.438.438 0 0 1-.43.342z"/>
    </g>
</svg>
