<svg xmlns="http://www.w3.org/2000/svg" width="50" height="30" viewBox="0 0 44 42">
    <g fill="#000" fill-rule="evenodd" stroke-width=".5">
        <path fill-rule="nonzero" d="M38.342 33.165h-11.52a.5.5 0 0 1-.5-.5v-1.28h-3.07a.5.5 0 0 1-.5-.5v-3.85a.51.51 0 0 1 .5-.5h6l4.69-6.91a.49.49 0 0 1 .41-.22h8.77a.5.5 0 0 1 .5.5v10.67a.5.5 0 0 1-.5.5h-4.28v1.59a.5.5 0 0 1-.5.5zm-11-1h10.5v-1.59a.5.5 0 0 1 .5-.5h4.33v-9.69h-8l-4.69 6.91a.48.48 0 0 1-.41.22h-5.83v2.87h3.07a.5.5 0 0 1 .5.5l.03 1.28z"/>
        <path fill-rule="nonzero" d="M39.172 41.295h-13.55a4.5 4.5 0 1 1 0-9h13.55a4.5 4.5 0 1 1 0 9zm-13.55-8a3.5 3.5 0 0 0 0 7h13.55a3.5 3.5 0 0 0 0-7h-13.55z"/>
        <path fill-rule="nonzero" d="M26.442 39.485a2.73 2.73 0 1 1 0-5.46 2.73 2.73 0 0 1 0 5.46zm0-4.45a1.73 1.73 0 1 0 0 3.46 1.73 1.73 0 0 0 0-3.46zM37.922 39.485a2.73 2.73 0 1 1 0-5.46 2.73 2.73 0 0 1 0 5.46zm0-4.45a1.73 1.73 0 1 0 1.73 1.72 1.72 1.72 0 0 0-1.73-1.72zM39.682 27.595h-6.47a.51.51 0 0 1-.46-.3.49.49 0 0 1 .1-.54l3.79-4.08a.48.48 0 0 1 .36-.16h2.68a.5.5 0 0 1 .5.5v4.08a.5.5 0 0 1-.5.5zm-5.32-1h4.82v-3.08h-2l-2.82 3.08z"/>
        <path d="M23.252 29.515a.5.5 0 0 1-.43-.25L8.312 4.155a.51.51 0 0 1-.05-.38.53.53 0 0 1 .24-.31l4.24-2.37a.5.5 0 0 1 .65.15l17.4 24.26a.501.501 0 0 1-.81.59l-17.13-23.91-3.42 1.91 14.25 24.67a.49.49 0 0 1-.18.68.55.55 0 0 1-.25.07z"/>
        <path fill-rule="nonzero" d="M12.202 21.465h-4.46a.5.5 0 0 1-.5-.5v-2.19a.5.5 0 0 1 .5-.5h4.44a.5.5 0 0 1 .5.5v2.19a.5.5 0 0 1-.48.5zm-3.94-1h3.48v-1.19h-3.48v1.19zM18.232 38.675H1.242a.5.5 0 0 1-.5-.5v-9.14a.5.5 0 0 1 .5-.5h17a.5.5 0 0 1 .5.5v9.16a.5.5 0 0 1-.51.48zm-16.49-1h16v-8.16h-16v8.16z"/>
        <path d="M5.632 38.675a.5.5 0 0 1-.5-.5v-9.14a.5.5 0 1 1 1 0v9.16a.5.5 0 0 1-.5.48zM9.982 38.675a.5.5 0 0 1-.5-.5v-9.14a.5.5 0 1 1 1 0v9.16a.5.5 0 0 1-.5.48zM14.182 38.675a.5.5 0 0 1-.5-.5v-9.14a.5.5 0 1 1 1 0v9.16a.5.5 0 0 1-.5.48zM2.522 29.425a.46.46 0 0 1-.36-.16.5.5 0 0 1 0-.71l7.29-6.69v-.9a.5.5 0 1 1 1 0v1.12a.51.51 0 0 1-.16.37l-7.43 6.84a.48.48 0 0 1-.34.13z"/>
        <path d="M16.452 29.295a.48.48 0 0 1-.36-.16l-6.47-6.7a.5.5 0 1 1 .72-.69l6.47 6.7a.5.5 0 0 1 0 .71.49.49 0 0 1-.36.14zM11.402 8.395a.49.49 0 0 1-.43-.24.51.51 0 0 1 .17-.69l4.31-2.57a.5.5 0 0 1 .69.14.51.51 0 0 1-.17.69l-4.31 2.6a.48.48 0 0 1-.26.07zM14.852 14.975a.5.5 0 0 1-.28-.91l5-3.38a.51.51 0 0 1 .7.14.5.5 0 0 1-.14.69l-5 3.38a.46.46 0 0 1-.28.08zM19.042 22.225a.48.48 0 0 1-.4-.21.51.51 0 0 1 .11-.7l5.4-3.86a.5.5 0 1 1 .58.81l-5.4 3.87a.5.5 0 0 1-.29.09zM9.982 18.885a.5.5 0 0 1-.5-.5V6.035a.5.5 0 0 1 1 0v12.35a.5.5 0 0 1-.5.5z"/>
    </g>
</svg>
