<svg xmlns="http://www.w3.org/2000/svg" width="50" height="30" viewBox="0 0 40 41">
    <g fill="#000" fill-rule="nonzero" stroke-width=".5">
        <path d="M12.74 18.628a5.151 5.151 0 0 1-5.126-5.804c-.545.198-1.12.3-1.698.302A5.176 5.176 0 1 1 11.09 7.95c0 .214-.016.426-.049.637a5.192 5.192 0 0 1 3.445 0 5.167 5.167 0 0 1 10.286.702 5.184 5.184 0 0 1-5.176 5.176 5.012 5.012 0 0 1-1.747-.327 5.127 5.127 0 0 1-5.11 4.465v.025zm-4.563-6.914a.457.457 0 0 1 .261.09.416.416 0 0 1 .13.432 4.343 4.343 0 1 0 8.507 1.314.4.4 0 0 1 .196-.342.416.416 0 0 1 .392 0 4.27 4.27 0 0 0 1.934.481 4.36 4.36 0 1 0-4.343-4.457.376.376 0 0 1-.196.335.392.392 0 0 1-.391 0 4.367 4.367 0 0 0-4.009.081.4.4 0 0 1-.449 0 .416.416 0 0 1-.138-.432c.13-.396.198-.809.204-1.225a4.36 4.36 0 1 0-4.36 4.36 4.294 4.294 0 0 0 2.066-.548.433.433 0 0 1 .196-.09zM31.393 11.338a5.176 5.176 0 1 1-.016-10.35 5.176 5.176 0 0 1 .016 10.35zm0-9.526a4.36 4.36 0 1 0 4.351 4.35 4.351 4.351 0 0 0-4.35-4.35z"/>
        <path d="M6.707 26.073a5.176 5.176 0 1 1 0-10.351 5.176 5.176 0 0 1 0 10.35zm0-9.527a4.36 4.36 0 1 0 4.36 4.351 4.351 4.351 0 0 0-4.36-4.35zM34.348 20.416a5.167 5.167 0 1 1 5.168-5.168 5.184 5.184 0 0 1-5.168 5.168zm0-9.519a4.351 4.351 0 1 0 4.351 4.351 4.36 4.36 0 0 0-4.35-4.35z"/>
        <path d="M13.034 39.093a5.2 5.2 0 0 1-4.751-3.175 5.102 5.102 0 0 1-4.425.816 5.167 5.167 0 0 1 2.735-9.95 5.086 5.086 0 0 1 3.372 2.979c.256-.19.53-.357.816-.498a5.012 5.012 0 0 1-.539-2.262 5.167 5.167 0 1 1 7.347 4.654c.35.702.535 1.476.539 2.26a5.176 5.176 0 0 1-5.094 5.176zm-4.555-4.27h.106c.135.04.242.144.286.278a4.335 4.335 0 1 0 7.87-3.453.392.392 0 0 1-.042-.343.44.44 0 0 1 .245-.253 4.343 4.343 0 1 0-5.853-4.081 4.237 4.237 0 0 0 .645 2.253.392.392 0 0 1 0 .343.408.408 0 0 1-.237.253 4.4 4.4 0 0 0-1.461.89c-.1.1-.247.137-.384.098a.424.424 0 0 1-.285-.278 4.343 4.343 0 1 0-1.143 4.408.392.392 0 0 1 .253-.114z"/>
        <path d="M34.03 39.836a5.184 5.184 0 0 1-5.176-5.167v-.555a5.176 5.176 0 0 1-4.791-5.151 4.898 4.898 0 0 1 .204-1.413 5.167 5.167 0 1 1 6.481-4.987c0 .478-.069.953-.204 1.412a5.143 5.143 0 0 1 3.861 4.988c.013.182.013.364 0 .547a5.167 5.167 0 0 1-.375 10.326zm-4.67-6.53a.433.433 0 0 1 .319.146.433.433 0 0 1 .081.343 4.36 4.36 0 1 0 4.278-3.478h-.106a.416.416 0 0 1-.4-.49 4.335 4.335 0 0 0-3.56-5.16.408.408 0 0 1-.285-.194.44.44 0 0 1 0-.351 4.36 4.36 0 1 0-4.76 2.71c.12.025.224.099.287.204a.408.408 0 0 1 0 .351 4.245 4.245 0 0 0-.303 1.567 4.351 4.351 0 0 0 4.351 4.351h.098z"/>
    </g>
</svg>
