<svg xmlns="http://www.w3.org/2000/svg" width="50" height="30" viewBox="0 0 31 42">
    <g fill="#000" fill-rule="evenodd">
        <path fill-rule="nonzero" d="M23.515 41.155H.778a.466.466 0 0 1-.466-.466V.966C.312.709.521.5.778.5h29.576c.258 0 .466.209.466.466v32.017c0 .254-.203.461-.456.466l-6.262.056-.121 7.184a.475.475 0 0 1-.466.466zm-22.27-.932h21.813l.121-7.184a.475.475 0 0 1 .466-.456l6.243-.066V1.432H1.244v38.791z"/>
        <path d="M23.515 41.155a.475.475 0 0 1-.354-.782l6.848-7.697a.457.457 0 0 1 .653-.047.475.475 0 0 1 0 .662l-6.85 7.706a.466.466 0 0 1-.297.158z"/>
        <path fill-rule="nonzero" d="M15.222 22.565v-.251c0-.839.177-1.79 1.733-3.168a3.42 3.42 0 0 0 1.463-2.805 2.31 2.31 0 0 0-2.451-2.376 2.6 2.6 0 0 0-2.72 2.497h-.989a3.56 3.56 0 0 1 3.728-3.41 3.224 3.224 0 0 1 3.475 3.289c0 1.416-.456 2.301-1.863 3.55a3.159 3.159 0 0 0-1.36 2.59v.131l-1.016-.047zm0 3.886v-2.274h1.025v2.274h-1.025z"/>
    </g>
</svg>
