<svg xmlns="http://www.w3.org/2000/svg" width="50" height="30" viewBox="0 0 43 39">
    <g fill="#000" fill-rule="evenodd">
        <path d="M1.287 37.462a.438.438 0 0 1-.429-.3.438.438 0 0 1 .283-.54c10.179-3.099 15.165-5.914 15.766-8.866.652-3.295-3.88-7.011-10.144-12.16l-2.43-1.992C2.31 11.888 1.546 10.3 2.086 8.816 4.737 1.46 40.868.73 41.194.73a.43.43 0 0 1 0 .858C35.349 1.632 5.038 3.1 2.892 9.116c-.395 1.107.275 2.386 1.991 3.81.858.695 1.64 1.356 2.42 2 6.505 5.347 11.2 9.2 10.445 12.993-.67 3.433-5.553 6.24-16.306 9.526l-.155.017z"/>
        <path d="M34.38 38.209a.395.395 0 0 1-.24-.069.43.43 0 0 1-.12-.592c.068-.103.136-.154.54-.429 5.089-3.501 7.56-6.737 7.337-9.62-.171-2.257-2.076-4.291-5.672-6.008-1.51-.73-3.081-1.467-4.652-2.197-7.775-3.613-14.486-6.728-13.928-9.723.377-1.974 3.372-4.326 23.549-5.63a.455.455 0 0 1 .455.403.43.43 0 0 1-.404.455c-14.666.944-22.313 2.575-22.76 4.9-.446 2.326 6.935 5.768 13.44 8.797 1.58.73 3.158 1.468 4.66 2.197 3.896 1.888 6.008 4.154 6.162 6.746.24 3.2-2.351 6.694-7.724 10.384l-.36.257a.438.438 0 0 1-.283.129zM39.091 3.246a.43.43 0 0 1 0-.858l2.103-.07a.42.42 0 0 1 .437.421.43.43 0 0 1-.42.438s-.798 0-2.128.069h.008z"/>
        <path fill-rule="nonzero" d="M29.986 33.257a.386.386 0 0 1-.318-.146.412.412 0 0 1 0-.6 7.956 7.956 0 0 0 2.352-3.099.43.43 0 0 1 .815.275 8.53 8.53 0 0 1-2.575 3.433.43.43 0 0 1-.274.137zm1.768-7.192a.42.42 0 0 1-.352-.188 12.967 12.967 0 0 0-2.875-2.79.438.438 0 0 1-.078-.6.43.43 0 0 1 .601-.086 14.066 14.066 0 0 1 3.055 2.986.43.43 0 0 1-.111.601.403.403 0 0 1-.24.077zm-6.403-5.217a.455.455 0 0 1-.231-.07c-1.107-.686-2.3-1.39-3.553-2.127a.43.43 0 1 1 .429-.739c1.261.739 2.463 1.45 3.578 2.137a.43.43 0 0 1-.223.799zm-7.157-4.231a.506.506 0 0 1-.223-.06 173.498 173.498 0 0 1-3.562-2.172.43.43 0 1 1 .464-.72c1.184.746 2.377 1.458 3.535 2.153a.42.42 0 0 1 .155.584.438.438 0 0 1-.352.215h-.017zm-6.926-4.575a.395.395 0 0 1-.283-.154 3.553 3.553 0 0 1-1.296-2.455 2.506 2.506 0 0 1 .781-1.716.42.42 0 0 1 .6 0 .43.43 0 0 1 0 .61c-.324.296-.519.71-.54 1.15a2.79 2.79 0 0 0 1.039 1.844.42.42 0 0 1-.284.721h-.017zm3.115-5.552a.435.435 0 1 1-.137-.858 34.946 34.946 0 0 1 4.068-1.082.42.42 0 0 1 .506.326.42.42 0 0 1-.334.507c-1.341.275-2.665.627-3.965 1.055a.386.386 0 0 1-.12.052h-.018zm8.11-1.794a.43.43 0 0 1-.06-.858c1.305-.189 2.695-.37 4.171-.532a.438.438 0 0 1 .48.377.43.43 0 0 1-.385.472c-1.45.164-2.832.344-4.103.533l-.102.008zm8.265-.935a.43.43 0 0 1-.42-.395.42.42 0 0 1 .386-.463c1.476-.12 2.883-.224 4.162-.3a.43.43 0 1 1 .051.857c-1.27.078-2.669.172-4.136.3h-.043z"/>
        <path d="M24.76 36.776a.43.43 0 0 1-.207-.798c.661-.37 1.27-.73 1.837-1.082a.42.42 0 0 1 .592.138.438.438 0 0 1-.137.592c-.584.36-1.202.72-1.871 1.098a.463.463 0 0 1-.215.052z"/>
    </g>
</svg>
