<svg xmlns="http://www.w3.org/2000/svg" width="50" height="30" viewBox="0 0 38 38">
    <g fill="#000" fill-rule="nonzero">
        <path d="M9.847 19.015a9.365 9.365 0 1 1 9.365-9.365 9.373 9.373 0 0 1-9.365 9.365zm0-17.877a8.52 8.52 0 1 0 0 17.04 8.52 8.52 0 0 0 0-17.04z"/>
        <path d="M27.724 19.015a9.365 9.365 0 1 1 9.357-9.365 9.373 9.373 0 0 1-9.357 9.365zm0-17.877a8.52 8.52 0 1 0-.017 17.04 8.52 8.52 0 0 0 .017-17.04zM9.847 36.883a9.356 9.356 0 1 1 9.365-9.356 9.365 9.365 0 0 1-9.365 9.356zm0-17.868a8.512 8.512 0 1 0 8.52 8.512 8.52 8.52 0 0 0-8.52-8.512z"/>
        <path d="M27.724 36.883a9.356 9.356 0 1 1 9.357-9.356 9.365 9.365 0 0 1-9.357 9.356zm0-17.868a8.512 8.512 0 1 0 8.512 8.512 8.52 8.52 0 0 0-8.512-8.512z"/>
    </g>
</svg>
