<svg xmlns="http://www.w3.org/2000/svg" width="15" height="21" viewBox="0 0 15 21">
    <g fill="none" fill-rule="nonzero">
        <path fill="#9FA8DA" d="M7.5 0C3.364 0 0 3.412 0 7.605 0 12.81 6.712 20.45 6.998 20.773a.67.67 0 0 0 1.004 0C8.288 20.45 15 12.81 15 7.605 15 3.412 11.635 0 7.5 0zm0 19.266c-2.259-2.72-6.15-8.089-6.15-11.66 0-3.44 2.76-6.236 6.15-6.236 3.39 0 6.15 2.797 6.15 6.235 0 3.572-3.89 8.94-6.15 11.661z"/>
        <path fill="#FFF" d="M7.5 19.266c-2.259-2.72-6.15-8.089-6.15-11.66 0-3.44 2.76-6.236 6.15-6.236 3.39 0 6.15 2.797 6.15 6.235 0 3.572-3.89 8.94-6.15 11.661z"/>
        <path fill="#9FA8DA" d="M7.5 3.23c-2.394 0-4.342 1.994-4.342 4.443 0 2.45 1.948 4.442 4.342 4.442 2.394 0 4.342-1.992 4.342-4.442S9.894 3.231 7.5 3.231zm0 7.108c-1.524 0-2.763-1.195-2.763-2.665S5.977 5.008 7.5 5.008c1.524 0 2.763 1.195 2.763 2.665s-1.24 2.665-2.763 2.665z"/>
    </g>
</svg>
