<svg xmlns="http://www.w3.org/2000/svg" width="26" height="29" viewBox="0 0 26 29">
    <g fill="none" fill-rule="evenodd">
        <path fill="#3F51B5" d="M4.063.754L2.266 1.792v11.706l-.89 3.332.34 5.531-1.03.82v1.655h1.689l.547 3.313 1.141.489h2.96l.613-.94v-2.52h10.759v2.177l.478 1.283h3.88l.526-1.283v-2.177l1.753-.342.5-1.654-1.143-.821v-7.665l-.372-1.734V1.792L22.366.754h-8.908z"/>
        <path fill="#FFF" fill-rule="nonzero" d="M3 17c0 1.103.897 2 2 2s2-.897 2-2-.897-2-2-2-2 .897-2 2zm2 1.036A1.037 1.037 0 1 1 6.036 17c0 .571-.465 1.036-1.036 1.036zM23 17c0-1.103-.897-2-2-2s-2 .897-2 2 .897 2 2 2 2-.897 2-2zm-.965 0a1.037 1.037 0 0 1-2.07 0c0-.571.464-1.036 1.035-1.036.57 0 1.035.465 1.035 1.036zM7.422 5c-.954 0-1.764.774-1.883 1.8l-.535 4.575a.588.588 0 0 0 .124.437c.097.12.237.188.384.188h14.976a.496.496 0 0 0 .384-.188.586.586 0 0 0 .124-.437L20.46 6.8c-.12-1.026-.93-1.8-1.883-1.8H7.422zm-.868 1.94c.055-.473.429-.83.868-.83h5.066v4.78H6.092l.462-3.95zm12.892 0l.461 3.95h-6.395V6.11h5.066c.44 0 .813.357.868.83z"/>
        <path fill="#FFF" fill-rule="nonzero" d="M24.956 22.15v-6.573c0-.623-.198-1.2-.532-1.672v-6.34a.521.521 0 1 0-1.04 0v4.784L22.5 5.347a2.443 2.443 0 0 0-2.414-2.138h-4.481V1.192h6.457c.728 0 1.321.596 1.321 1.328v2.953c0 .289.233.523.52.523.288 0 .521-.234.521-.523V2.52c0-1.206-.9-2.204-2.06-2.353.16-.223-18.889-.223-18.729 0a2.373 2.373 0 0 0-2.06 2.353v11.393a2.882 2.882 0 0 0-.53 1.664v6.573a1.778 1.778 0 0 0 .722 3.395h.39v2.18c0 .703.57 1.275 1.27 1.275H6.88c.7 0 1.27-.572 1.27-1.276v-2.18h9.702v2.18c0 .704.57 1.276 1.27 1.276h3.452c.7 0 1.27-.572 1.27-1.276v-2.18h.39c.974 0 1.767-.796 1.767-1.775 0-.72-.43-1.34-1.044-1.619zM22.378 12.7c-.1-.01-.2-.016-.303-.016H7.073a.522.522 0 0 0-.52.523c0 .289.233.523.52.523h15.002c1.015 0 1.84.829 1.84 1.848v6.417H2.085v-6.417a1.856 1.856 0 0 1 1.84-1.848H4.99c.288 0 .52-.234.52-.523a.522.522 0 0 0-.52-.523H3.925a2.725 2.725 0 0 0-.25.011c-.012.001.274-2.404.858-7.216a1.397 1.397 0 0 1 1.38-1.223H20.087c.7 0 1.293.526 1.381 1.223l.911 7.221zM3.938 1.192h6.457V3.21H5.914c-1.223 0-2.26.92-2.414 2.138l-.884 7V2.52c0-.732.593-1.328 1.322-1.328zm3.17 26.532a.23.23 0 0 1-.23.23h-3.45a.23.23 0 0 1-.23-.23v-2.18h3.91v2.18zm15.694 0a.23.23 0 0 1-.23.23h-3.45a.23.23 0 0 1-.23-.23v-2.18h3.91v2.18zm1.43-3.225H1.768a.729.729 0 0 1 0-1.459h22.466a.729.729 0 0 1 0 1.459z"/>
        <path fill="#3F51B5" d="M11 1h4v2h-4z"/>
        <path fill="#FFF" fill-rule="nonzero" d="M23.417 20h-1.834c-.322 0-.583.224-.583.5s.261.5.583.5h1.834c.322 0 .583-.224.583-.5s-.261-.5-.583-.5zM5.417 20H3.583c-.322 0-.583.224-.583.5s.261.5.583.5h1.834c.322 0 .583-.224.583-.5s-.261-.5-.583-.5z"/>
    </g>
</svg>
